# Blender v2.93.1 OBJ File: 'Cessna_172_v3.blend'
# www.blender.org
mtllib Cessna_172_prop.mtl
o Cube
v 3.775252 -0.001983 -0.156063
v 3.775252 -0.137138 -0.078032
v 3.775252 -0.137138 0.078032
v 3.775252 -0.001983 0.156063
v 3.775252 0.133171 0.078032
v 3.775252 0.133171 -0.078032
v 3.808782 -0.941661 0.054992
v 3.808782 1.058339 0.054992
v 3.850901 -0.941661 0.054992
v 3.850901 1.058339 0.054992
v 3.775252 -0.001983 0.156063
v 3.775252 -0.137138 0.078032
v 3.775252 -0.137138 -0.078032
v 3.775252 -0.001983 -0.156063
v 3.775252 0.133171 -0.078032
v 3.775252 0.133171 0.078032
v 4.087379 -0.001983 0.000000
v 3.808782 -0.941661 -0.054992
v 3.808782 1.058339 -0.054992
v 3.850901 -0.941661 -0.054992
v 3.850901 1.058339 -0.054992
v 3.808782 -0.941661 0.000000
v 3.808782 1.058339 0.000000
v 3.850901 -0.941661 0.000000
v 3.850901 1.058339 0.000000
vt 0.250000 0.490000
vt 0.250000 0.250000
vt 0.457846 0.370000
vt 0.457846 0.130000
vt 0.250000 0.010000
vt 0.042154 0.130000
vt 0.750000 0.490000
vt 0.957846 0.370000
vt 0.957846 0.130000
vt 0.750000 0.010000
vt 0.542154 0.130000
vt 0.542154 0.370000
vt 0.042154 0.370000
vt 0.375000 0.625000
vt 0.625000 0.625000
vt 0.625000 0.750000
vt 0.375000 0.750000
vt 0.625000 1.000000
vt 0.375000 1.000000
vt 0.125000 0.625000
vt 0.125000 0.750000
vt 0.875000 0.625000
vt 0.875000 0.750000
vt 0.375000 0.000000
vt 0.625000 0.000000
vt 0.625000 0.125000
vt 0.375000 0.125000
vt 0.250000 0.490000
vt 0.457846 0.370000
vt 0.457846 0.130000
vt 0.250000 0.010000
vt 0.042154 0.130000
vt 0.750000 0.490000
vt 0.542154 0.370000
vt 0.542154 0.130000
vt 0.750000 0.010000
vt 0.957846 0.130000
vt 0.957846 0.370000
vt 0.042154 0.370000
vt 0.375000 0.750000
vt 0.625000 0.750000
vt 0.375000 1.000000
vt 0.625000 1.000000
vt 0.125000 0.750000
vt 0.875000 0.750000
vt 0.375000 0.000000
vt 0.625000 0.000000
vn 0.3974 -0.4588 -0.7947
vn 0.3974 -0.9177 0.0000
vn 0.3974 -0.4588 0.7947
vn 0.3974 0.4588 0.7947
vn -1.0000 0.0000 0.0000
vn 0.3974 0.9177 0.0000
vn 0.3974 0.4588 -0.7947
vn 1.0000 0.0000 0.0000
vn 0.0000 0.0000 1.0000
vn 0.0000 -1.0000 0.0000
vn 0.0000 1.0000 0.0000
vn 0.0000 0.0000 -1.0000
usemtl Material
s off
f 1/1/1 17/2/1 2/3/1
f 2/3/2 17/2/2 3/4/2
f 3/4/3 17/2/3 4/5/3
f 4/5/4 17/2/4 5/6/4
f 1/7/5 2/8/5 3/9/5 4/10/5 5/11/5 6/12/5
f 5/6/6 17/2/6 6/13/6
f 6/13/7 17/2/7 1/1/7
f 24/14/8 25/15/8 10/16/8 9/17/8
f 9/17/9 10/16/9 8/18/9 7/19/9
f 22/20/10 24/14/10 9/17/10 7/21/10
f 25/15/11 23/22/11 8/23/11 10/16/11
f 7/24/5 8/25/5 23/26/5 22/27/5
f 11/28/3 12/29/3 17/2/3
f 12/29/2 13/30/2 17/2/2
f 13/30/1 14/31/1 17/2/1
f 14/31/7 15/32/7 17/2/7
f 11/33/5 16/34/5 15/35/5 14/36/5 13/37/5 12/38/5
f 15/32/6 16/39/6 17/2/6
f 16/39/4 11/28/4 17/2/4
f 24/14/8 20/40/8 21/41/8 25/15/8
f 20/40/12 18/42/12 19/43/12 21/41/12
f 22/20/10 18/44/10 20/40/10 24/14/10
f 25/15/11 21/41/11 19/45/11 23/22/11
f 18/46/5 22/27/5 23/26/5 19/47/5
