# Blender v2.93.1 OBJ File: ''
# www.blender.org
mtllib runway.mtl
o Cube
v -26.808350 0.000000 18.531813
v 328.814911 0.000000 18.531929
v -26.808350 0.000000 -18.532015
v 328.814941 0.000000 -18.531898
v 151.003296 0.000000 -18.531956
v 151.003281 0.000000 18.531872
v 239.909088 0.000000 18.531900
v 239.909119 0.000000 -18.531927
v 62.097473 0.000000 -18.531984
v 62.097473 0.000000 18.531843
v 17.644562 0.000000 -18.532000
v 17.644562 0.000000 18.531828
v 106.550385 0.000000 18.531857
v 106.550385 0.000000 -18.531971
v 195.456207 0.000000 -18.531942
v 195.456177 0.000000 18.531885
v 284.362000 0.000000 18.531916
v 284.362030 0.000000 -18.531912
v 381.599609 0.000000 18.531929
v 381.599609 0.000000 -18.531898
v 443.252136 0.000000 18.531929
v 443.252136 0.000000 -18.531898
v 491.391785 0.000000 18.531929
v 491.391785 0.000000 -18.531898
v 547.554688 0.000000 18.531929
v 547.554688 0.000000 -18.531898
v 613.752686 0.000000 18.531929
v 613.752686 0.000000 -18.531898
v 687.894470 0.000000 18.531927
v 687.894470 0.000000 -18.531900
v 757.496948 0.000000 18.531927
v 757.496948 0.000000 -18.531900
v 837.691101 0.000000 18.531927
v 837.691101 0.000000 -18.531900
v 913.345947 0.000000 18.531927
v 913.345947 0.000000 -18.531900
v 981.435303 0.000000 18.531927
v 981.435303 0.000000 -18.531900
vt 0.505527 0.995176
vt 0.505349 0.674500
vt 0.744962 0.674263
vt 0.745140 0.994939
vt 0.133236 0.499390
vt 0.133236 0.532704
vt 0.112404 0.532704
vt 0.112404 0.499390
vt 0.133236 0.432762
vt 0.133236 0.466076
vt 0.112404 0.466076
vt 0.112404 0.432762
vt 0.133236 0.566018
vt 0.133236 0.599331
vt 0.112404 0.599331
vt 0.112404 0.566018
vt 0.967213 0.346461
vt 0.967213 0.662288
vt 0.769716 0.662288
vt 0.769716 0.346461
vt 0.133236 0.399448
vt 0.112404 0.399448
vt 0.112404 0.399448
vt 0.133236 0.399448
vt 0.112404 0.399448
vt 0.133236 0.399448
vt 0.112404 0.399448
vt 0.133236 0.399448
vt 0.112404 0.399448
vt 0.133236 0.399448
vt 0.112404 0.399448
vt 0.133236 0.399448
vt 0.112404 0.399448
vt 0.133236 0.399448
vt 0.112404 0.399448
vt 0.133236 0.399448
vt 0.112404 0.399448
vt 0.133236 0.399448
vt 0.112404 0.399448
vt 0.133236 0.399448
vt 0.112404 0.399448
vt 0.133236 0.399448
vn 0.0000 1.0000 0.0000
usemtl Material
s off
f 11/1/1 3/2/1 1/3/1 12/4/1
f 15/5/1 5/6/1 6/7/1 16/8/1
f 18/9/1 8/10/1 7/11/1 17/12/1
f 14/13/1 9/14/1 10/15/1 13/16/1
f 9/17/1 11/18/1 12/19/1 10/20/1
f 5/6/1 14/13/1 13/16/1 6/7/1
f 8/10/1 15/5/1 16/8/1 7/11/1
f 4/21/1 18/9/1 17/12/1 2/22/1
f 4/21/1 2/22/1 19/23/1 20/24/1
f 20/24/1 19/23/1 21/25/1 22/26/1
f 22/26/1 21/25/1 23/27/1 24/28/1
f 24/28/1 23/27/1 25/29/1 26/30/1
f 26/30/1 25/29/1 27/31/1 28/32/1
f 28/32/1 27/31/1 29/33/1 30/34/1
f 30/34/1 29/33/1 31/35/1 32/36/1
f 32/36/1 31/35/1 33/37/1 34/38/1
f 34/38/1 33/37/1 35/39/1 36/40/1
f 36/40/1 35/39/1 37/41/1 38/42/1
